# xmcd
#
# Track frame offsets: 
#        150
#        19972
#        41706
#        74018
#        94137
#        117883
#        155763
#        171554
#        197608
#        221342
#
# Disc length: 3203 seconds
#
# Revision: 0
# Processed by: cddbd v1.5PL3 Copyright (c) Steve Scherf et al.
# Submitted via: ExactAudioCopy v0.95a4
#
DISCID=940c810a
DTITLE=Primecut Blues - Primecut Blues
DYEAR=2003
DGENRE=Blues
TTITLE0=I Love The Blues
TTITLE1=Moving Target
TTITLE2=Hidden Love
TTITLE3=Primecut Blues
TTITLE4=Axeman
TTITLE5=Same Thing
TTITLE6=Honest I Do
TTITLE7=Bad Avenue
TTITLE8=Trust Me
TTITLE9=Princess
EXTD=
EXTT0=
EXTT1=
EXTT2=
EXTT3=
EXTT4=
EXTT5=
EXTT6=
EXTT7=
EXTT8=
EXTT9=
PLAYORDER=
